<svg width="133" height="32" viewBox="0 0 133 32" fill="none" xmlns="http://www.w3.org/2000/svg">
<g clip-path="url(#clip0_104_10868)">
<path d="M16.0618 22.3232H12.2024V20.4084C11.6223 21.026 10.9114 21.5165 10.1175 21.8468C9.3237 22.1771 8.46549 22.3396 7.60087 22.3232C3.14775 22.3232 0 19.0948 0 14.4919C0 9.8889 2.90981 6.6311 7.36294 6.6311C10.0414 6.6311 11.5694 8.06033 11.9645 8.57527V6.6311H16.0618V22.3232ZM8.10512 10.118C5.73012 10.118 4.12569 11.9171 4.12569 14.5192C4.12569 17.178 5.78906 18.8363 8.10512 18.8363C10.598 18.8363 12.0824 16.8921 12.0824 14.5192C12.0824 11.7196 10.3601 10.118 8.10512 10.118Z" fill="#E52E6B"/>
<path d="M37.5787 21.9534H33.7193V20.4086C33.1395 21.0265 32.4286 21.5173 31.6347 21.8477C30.8408 22.178 29.9824 22.3402 29.1177 22.3233C24.6646 22.3233 21.519 19.0949 21.519 14.492C21.519 9.88904 24.4289 6.63124 28.882 6.63124C31.5538 6.63124 33.0972 8.06047 33.4835 8.57541V1.82861H37.5787V21.9534ZM29.6242 10.1181C27.2492 10.1181 25.6447 11.9194 25.6447 14.5193C25.6447 17.1781 27.3081 18.8364 29.6242 18.8364C32.117 18.8364 33.6014 16.8923 33.6014 14.5193C33.6014 11.7197 31.8704 10.1181 29.6242 10.1181Z" fill="#E52E6B"/>
<path d="M51.3792 6.63124C56.1292 6.63124 59.7506 9.99413 59.7506 14.5193C59.7506 19.0445 56.258 22.3233 51.3792 22.3233C46.5004 22.3233 43.0361 19.0361 43.0361 14.5193C43.0361 10.0025 46.6598 6.63124 51.3792 6.63124ZM51.3792 18.8364C53.8437 18.8364 55.6555 17.0646 55.6555 14.5193C55.6555 11.974 53.8437 10.1181 51.3792 10.1181C48.9147 10.1181 47.1334 11.9467 47.1334 14.5193C47.1334 17.0919 48.9453 18.8364 51.3792 18.8364ZM44.8196 1.82861H57.9694V4.7165H44.8196V1.82861Z" fill="#E52E6B"/>
<path d="M65.2075 6.6311H66.8272V9.80273C67.2158 9.23104 69.0298 6.68785 73.0769 6.68785C77.8793 6.68785 81.2693 9.91833 81.2693 14.4351C81.2693 19.0086 77.9666 22.2664 73.2384 22.2664C69.4183 22.2664 67.3773 19.9797 66.8272 19.0654V30.1713H65.2075V6.6311ZM73.2057 20.9234C76.8664 20.9234 79.5863 18.2352 79.5863 14.4351C79.5863 10.5468 76.7354 8.03091 73.1424 8.03091C69.2241 8.03091 66.7617 10.9461 66.7617 14.4351C66.7617 18.5504 69.7087 20.9234 73.2057 20.9234Z" fill="#E52E6B"/>
<path d="M94.3735 6.68799C98.9314 6.68799 101.837 9.86172 101.837 14.12V14.7211H88.3181C88.3181 18.6641 91.0097 20.9508 94.8014 20.9508C97.7395 20.9508 99.3593 19.6078 100.278 18.4077L101.287 19.0634C100.248 20.6356 98.2307 22.2645 94.8014 22.2645C90.1234 22.2645 86.7246 19.1496 86.7246 14.5172C86.7268 9.65994 90.3373 6.68799 94.3735 6.68799ZM100.248 13.4621C100.064 9.74612 97.3423 7.99741 94.3429 7.99741C91.4681 7.99741 88.7154 9.82598 88.4098 13.4621H100.248Z" fill="#E52E6B"/>
<path d="M109.374 1.82861H110.974V6.63755H116.054V7.9806H110.974V16.7073C110.974 20.0828 111.808 20.9487 114.305 20.9487C114.659 20.9487 116.052 20.9193 116.052 20.9193V22.2645C116.052 22.2645 114.27 22.3233 113.664 22.3233C111.044 22.3233 109.372 20.7995 109.372 17.6636V7.9806H107.322V6.63755H109.372L109.374 1.82861Z" fill="#E52E6B"/>
<path d="M123.435 18.3802C124.09 19.6939 125.277 20.9802 127.766 20.9802C129.671 20.9802 131.415 19.9293 131.415 18.0923C131.415 14.0988 122.756 15.4062 122.756 10.5258C122.756 8.15494 124.921 6.69629 127.766 6.69629C130.868 6.69629 132.289 8.46811 132.677 9.63882L131.352 10.0949C130.9 9.18062 130.06 7.95107 127.641 7.95107C125.832 7.95107 124.345 8.86745 124.345 10.4396C124.345 14.2691 133.007 12.9618 133.007 18.0418C133.007 20.5283 130.743 22.2728 127.707 22.2728C124.087 22.2728 122.73 20.358 122.051 18.872L123.435 18.3802Z" fill="#E52E6B"/>
</g>
<defs>
<clipPath id="clip0_104_10868">
<rect width="133" height="28.3429" fill="white" transform="translate(0 1.82861)"/>
</clipPath>
</defs>
</svg>
