<svg width="16" height="16" viewBox="0 0 16 16" fill="none" xmlns="http://www.w3.org/2000/svg">
<path d="M16 7.85714C16 8.48929 15.5205 9 14.887 9H3.91129L7.6832 12.7643C8.13053 13.2107 8.13053 13.9339 7.6832 14.3804C7.45774 14.6036 7.16429 14.7143 6.87084 14.7143C6.57739 14.7143 6.28466 14.6027 6.06135 14.3795L0.335499 8.66518C-0.111833 8.21875 -0.111833 7.49554 0.335499 7.04911L6.06135 1.33482C6.50868 0.888393 7.23336 0.888393 7.68069 1.33482C8.12803 1.78125 8.12803 2.50446 7.68069 2.95089L3.91129 6.71429H14.887C15.5205 6.71429 16 7.225 16 7.85714Z" fill="#EE2C6C"/>
</svg>
