<svg width="17" height="16" viewBox="0 0 17 16" fill="none" xmlns="http://www.w3.org/2000/svg">
<path d="M15.4 6.69326C15.1424 6.69326 14.8928 6.78361 14.695 6.94851L9.79187 11.036C9.08313 11.6266 7.92313 11.6269 7.21406 11.0361L2.30625 6.94639C2.10837 6.78148 1.85875 6.69114 1.60125 6.69114C0.993125 6.69326 0.5 7.18389 0.5 7.79326V13.9995C0.5 15.1026 1.39531 15.9995 2.5 15.9995H14.5C15.6047 15.9995 16.5 15.1036 16.5 13.9992V7.79326C16.5 7.18389 16.0062 6.69326 15.4 6.69326ZM15 13.9995C15 14.2752 14.7757 14.4995 14.5 14.4995H2.5C2.22431 14.4995 2 14.2752 2 13.9995V8.64639L6.25313 12.1901C6.88438 12.712 7.68125 13.0026 8.5 13.0026C9.31875 13.0026 10.1172 12.7144 10.7491 12.1895L15 8.64639V13.9995ZM4 7.05889V1.74951C4 1.61182 4.11231 1.49951 4.25 1.49951H12.75C12.8877 1.49951 13 1.61182 13 1.74951V7.05576L14.0538 6.17764C14.1906 6.06514 14.3406 5.97764 14.5 5.90264V1.74951C14.5 0.784512 13.7156 -0.000488281 12.75 -0.000488281H4.25C3.28531 -0.000488281 2.5 0.784512 2.5 1.74951V5.90264C2.65825 5.97795 2.81066 6.06607 2.94688 6.17961L4 7.05889ZM10.75 2.99951H6.25C5.83437 2.99951 5.5 3.33389 5.5 3.74951C5.5 4.16514 5.83437 4.49951 6.25 4.49951H10.75C11.1656 4.49951 11.5 4.16514 11.5 3.74951C11.5 3.33389 11.1656 2.99951 10.75 2.99951ZM10.75 5.49951H6.25C5.83437 5.49951 5.5 5.83389 5.5 6.24951C5.5 6.66514 5.83437 6.99951 6.25 6.99951H10.75C11.1656 6.99951 11.5 6.66514 11.5 6.24951C11.5 5.83389 11.1656 5.49951 10.75 5.49951Z" fill="#474B70"/>
</svg>
