<svg width="14" height="16" viewBox="0 0 14 16" fill="none" xmlns="http://www.w3.org/2000/svg">
<path d="M12 0H2C0.895313 0 0 0.895313 0 2V14C0 15.1047 0.895313 16 2 16H12C13.1047 16 14 15.1047 14 14V2C14 0.895313 13.1031 0 12 0ZM12.5 14C12.5 14.2757 12.2757 14.5 12 14.5H2C1.72431 14.5 1.5 14.2757 1.5 14V2C1.5 1.72431 1.72431 1.5 2 1.5H12C12.2757 1.5 12.5 1.72431 12.5 2V14ZM8 12.5H6C5.72388 12.5 5.5 12.7239 5.5 13C5.5 13.2761 5.72388 13.5 6 13.5H8C8.27619 13.5 8.5 13.2761 8.5 13C8.5 12.7239 8.275 12.5 8 12.5Z" fill="#EE2C6C"/>
</svg>
